<svg width="25" height="25" viewBox="0 0 25 25" fill="none" xmlns="http://www.w3.org/2000/svg">
<path d="M16.536 3.37451C17.816 4.11343 18.9089 5.13692 19.7302 6.36579C20.5514 7.59467 21.0788 8.996 21.2718 10.4614C21.4648 11.9267 21.3181 13.4168 20.843 14.8164C20.3679 16.216 19.5773 17.4875 18.5321 18.5326C17.487 19.5777 16.2155 20.3684 14.8159 20.8435C13.4163 21.3185 11.9262 21.4653 10.4609 21.2723C8.99551 21.0793 7.59418 20.5518 6.36531 19.7306C5.13643 18.9094 4.11294 17.8165 3.37402 16.5365" stroke="#F42021" stroke-linecap="round" stroke-linejoin="round"/>
<path d="M16.6771 3.51567C17.737 5.3525 18.1614 7.48772 17.8844 9.59027C17.6073 11.6928 16.6444 13.6453 15.1448 15.1448C13.6452 16.6444 11.6928 17.6074 9.59023 17.8844C7.48768 18.1615 5.35246 17.7371 3.51562 16.6771M5.20833 4.16671V6.25004M4.16667 5.20837H6.25M6.25 9.37504V10.9375M5.46875 10.1563H7.03125M15.8854 7.29171V8.85421M15.1042 8.07296H16.6667M20.0521 2.86462V4.42712M19.2708 3.64587H20.8333M3.90625 21.3542H5.46875M4.6875 20.573V22.1355M20.5729 18.75H22.1354M21.3542 17.9688L21.3646 19.5313" stroke="#F42021" stroke-linecap="round" stroke-linejoin="round"/>
</svg>
