<svg width="26" height="25" viewBox="0 0 26 25" fill="none" xmlns="http://www.w3.org/2000/svg">
<path d="M3.25 12.5H13V14.0625H3.25V12.5ZM1.625 8.59375H9.75V10.1562H1.625V8.59375Z" fill="#E83E52"/>
<path d="M24.3096 12.9734L21.8721 7.50469C21.8096 7.36412 21.7055 7.24432 21.5727 7.16016C21.44 7.07599 21.2845 7.03117 21.1255 7.03125H18.688V5.46875C18.688 5.26155 18.6024 5.06284 18.45 4.91632C18.2976 4.76981 18.0909 4.6875 17.8755 4.6875H4.87546V6.25H17.063V16.0594C16.6927 16.2661 16.3687 16.5412 16.1096 16.8689C15.8505 17.1967 15.6615 17.5704 15.5533 17.9688H10.4476C10.2498 17.2323 9.77952 16.5905 9.12482 16.1636C8.47013 15.7367 7.67599 15.5541 6.89127 15.6499C6.10654 15.7457 5.38511 16.1135 4.86219 16.6842C4.33928 17.2549 4.05078 17.9894 4.05078 18.75C4.05078 19.5106 4.33928 20.2451 4.86219 20.8158C5.38511 21.3865 6.10654 21.7543 6.89127 21.8501C7.67599 21.9459 8.47013 21.7633 9.12482 21.3364C9.77952 20.9095 10.2498 20.2677 10.4476 19.5312H15.5533C15.7301 20.2017 16.1343 20.7964 16.702 21.2212C17.2698 21.646 17.9686 21.8767 18.688 21.8767C19.4073 21.8767 20.1062 21.646 20.6739 21.2212C21.2416 20.7964 21.6458 20.2017 21.8226 19.5312H23.563C23.7784 19.5312 23.9851 19.4489 24.1375 19.3024C24.2899 19.1559 24.3755 18.9572 24.3755 18.75V13.2812C24.3755 13.1754 24.3531 13.0707 24.3096 12.9734ZM7.31296 20.3125C6.99156 20.3125 6.67738 20.2209 6.41015 20.0492C6.14292 19.8775 5.93464 19.6335 5.81165 19.3479C5.68866 19.0624 5.65648 18.7483 5.71918 18.4452C5.78188 18.1421 5.93665 17.8637 6.16391 17.6451C6.39117 17.4266 6.68071 17.2778 6.99593 17.2175C7.31115 17.1572 7.63789 17.1882 7.93482 17.3064C8.23175 17.4247 8.48554 17.625 8.66409 17.8819C8.84265 18.1389 8.93795 18.441 8.93795 18.75C8.93752 19.1643 8.76618 19.5615 8.46153 19.8544C8.15687 20.1473 7.7438 20.3121 7.31296 20.3125ZM18.688 8.59375H20.5892L22.3312 12.5H18.688V8.59375ZM18.688 20.3125C18.3666 20.3125 18.0524 20.2209 17.7852 20.0492C17.5179 19.8775 17.3096 19.6335 17.1867 19.3479C17.0637 19.0624 17.0315 18.7483 17.0942 18.4452C17.1569 18.1421 17.3116 17.8637 17.5389 17.6451C17.7662 17.4266 18.0557 17.2778 18.3709 17.2175C18.6862 17.1572 19.0129 17.1882 19.3098 17.3064C19.6067 17.4247 19.8605 17.625 20.0391 17.8819C20.2176 18.1389 20.313 18.441 20.313 18.75C20.3125 19.1643 20.1412 19.5615 19.8365 19.8544C19.5319 20.1473 19.1188 20.3121 18.688 20.3125ZM22.7505 17.9688H21.8226C21.6436 17.2996 21.2387 16.7064 20.6715 16.2822C20.1042 15.8581 19.4066 15.6269 18.688 15.625V14.0625H22.7505V17.9688Z" fill="#E83E52"/>
</svg>
