<svg width="13" height="18" viewBox="0 0 13 18" fill="none" xmlns="http://www.w3.org/2000/svg">
<path d="M6.0668 9.31406C5.55257 9.31406 5.04988 9.15571 4.62232 8.85903C4.19475 8.56235 3.8615 8.14067 3.66471 7.64731C3.46792 7.15395 3.41643 6.61107 3.51676 6.08732C3.61708 5.56357 3.8647 5.08248 4.22832 4.70488C4.59194 4.32727 5.05521 4.07012 5.55956 3.96594C6.06391 3.86176 6.58669 3.91523 7.06177 4.11959C7.53686 4.32395 7.94293 4.67001 8.22862 5.11402C8.51431 5.55804 8.6668 6.08005 8.6668 6.61406C8.66597 7.32988 8.39178 8.01614 7.90436 8.5223C7.41695 9.02847 6.75611 9.31321 6.0668 9.31406ZM6.0668 4.99406C5.75826 4.99406 5.45665 5.08908 5.20011 5.26708C4.94357 5.44509 4.74362 5.6981 4.62555 5.99412C4.50747 6.29013 4.47658 6.61586 4.53677 6.93011C4.59697 7.24436 4.74554 7.53302 4.96371 7.75958C5.18188 7.98614 5.45985 8.14043 5.76246 8.20294C6.06507 8.26544 6.37873 8.23336 6.66378 8.11075C6.94884 7.98813 7.19248 7.78049 7.36389 7.51409C7.53531 7.24768 7.6268 6.93447 7.6268 6.61406C7.62638 6.18454 7.4619 5.77274 7.16943 5.46902C6.87696 5.16531 6.48041 4.99449 6.0668 4.99406Z" fill="white"/>
<path d="M6.5 18L1.5151 11.6042C1.44583 11.5082 1.37728 11.4115 1.30946 11.3143C0.457949 10.094 -0.00205706 8.6035 6.91533e-06 7.07143C6.91533e-06 5.19597 0.684826 3.39732 1.90381 2.07117C3.1228 0.745024 4.77609 0 6.5 0C8.22391 0 9.8772 0.745024 11.0962 2.07117C12.3152 3.39732 13 5.19597 13 7.07143C13.0021 8.60281 12.5423 10.0926 11.6911 11.3124L11.6905 11.3143C11.6905 11.3143 11.5133 11.5676 11.4867 11.6016L6.5 18ZM2.25255 10.5396C2.25373 10.5396 2.39082 10.7376 2.42214 10.7801L6.5 16.0123L10.5832 10.773C10.6092 10.7376 10.7474 10.5384 10.748 10.5377C11.4436 9.54072 11.8195 8.32309 11.8182 7.07143C11.8182 5.53696 11.2579 4.06534 10.2605 2.98031C9.26317 1.89528 7.91047 1.28571 6.5 1.28571C5.08953 1.28571 3.73683 1.89528 2.73948 2.98031C1.74213 4.06534 1.18182 5.53696 1.18182 7.07143C1.18058 8.32387 1.55633 9.54219 2.25255 10.5396Z" fill="white"/>
</svg>
