<svg width="19" height="19" viewBox="0 0 19 19" fill="none" xmlns="http://www.w3.org/2000/svg">
<rect width="19" height="19" rx="5" fill="white"/>
<path d="M4.51252 5.31213C4.43913 5.38537 4.38091 5.47236 4.34118 5.56813C4.30145 5.66391 4.28101 5.76657 4.28101 5.87025C4.28101 5.97394 4.30145 6.0766 4.34118 6.17237C4.38091 6.26814 4.43913 6.35514 4.51252 6.42838L7.58419 9.50005L4.51252 12.5717C4.43923 12.645 4.38109 12.732 4.34142 12.8278C4.30176 12.9235 4.28134 13.0262 4.28134 13.1298C4.28134 13.2335 4.30176 13.3361 4.34142 13.4319C4.38109 13.5277 4.43923 13.6147 4.51252 13.688C4.58582 13.7613 4.67283 13.8194 4.76859 13.8591C4.86436 13.8987 4.967 13.9191 5.07065 13.9191C5.1743 13.9191 5.27694 13.8987 5.3727 13.8591C5.46847 13.8194 5.55548 13.7613 5.62877 13.688L9.26252 10.0542C9.33591 9.98097 9.39414 9.89398 9.43387 9.79821C9.47359 9.70244 9.49404 9.59977 9.49404 9.49609C9.49404 9.3924 9.47359 9.28974 9.43387 9.19397C9.39414 9.0982 9.33591 9.0112 9.26252 8.93796L5.63669 5.31213C5.32794 5.00338 4.82127 5.00338 4.51252 5.31213Z" fill="#F42021"/>
<path d="M9.72957 5.31215C9.65617 5.38539 9.59795 5.47239 9.55822 5.56816C9.5185 5.66393 9.49805 5.76659 9.49805 5.87028C9.49805 5.97396 9.5185 6.07663 9.55822 6.1724C9.59795 6.26817 9.65617 6.35516 9.72957 6.4284L12.8012 9.50007L9.72957 12.5717C9.58154 12.7198 9.49838 12.9205 9.49838 13.1299C9.49838 13.3392 9.58154 13.54 9.72957 13.688C9.87759 13.836 10.0784 13.9192 10.2877 13.9192C10.497 13.9192 10.6978 13.836 10.8458 13.688L14.4796 10.0542C14.553 9.98099 14.6112 9.894 14.6509 9.79823C14.6906 9.70246 14.7111 9.59979 14.7111 9.49611C14.7111 9.39243 14.6906 9.28976 14.6509 9.19399C14.6112 9.09822 14.553 9.01122 14.4796 8.93798L10.8458 5.30423C10.545 5.0034 10.0383 5.0034 9.72957 5.31215Z" fill="#F42021"/>
</svg>
