<svg width="18" height="18" viewBox="0 0 18 18" fill="none" xmlns="http://www.w3.org/2000/svg">
<path d="M9 0.482666C4.5816 0.482666 1 4.18851 1 8.76018C1 13.3319 4.5816 17.0377 9 17.0377C13.4184 17.0377 17 13.3319 17 8.76018C17 4.18851 13.4184 0.482666 9 0.482666Z" stroke="white" stroke-width="0.8" stroke-linecap="round" stroke-linejoin="round"/>
<path d="M2.81763 14.0129C2.81763 14.0129 4.60083 11.6571 9.00083 11.6571C13.4008 11.6571 15.1848 14.0129 15.1848 14.0129M9.00083 8.75997C9.63735 8.75997 10.2478 8.49834 10.6979 8.03264C11.148 7.56694 11.4008 6.93531 11.4008 6.27671C11.4008 5.61811 11.148 4.98649 10.6979 4.52079C10.2478 4.05509 9.63735 3.79346 9.00083 3.79346C8.36431 3.79346 7.75386 4.05509 7.30377 4.52079C6.85368 4.98649 6.60083 5.61811 6.60083 6.27671C6.60083 6.93531 6.85368 7.56694 7.30377 8.03264C7.75386 8.49834 8.36431 8.75997 9.00083 8.75997Z" stroke="white" stroke-width="0.8" stroke-linecap="round" stroke-linejoin="round"/>
</svg>
