<svg width="16" height="17" viewBox="0 0 16 17" fill="none" xmlns="http://www.w3.org/2000/svg">
<path d="M0.592105 15.7028V16.3211L1.02185 15.8766L3.97131 12.8254H13.4737C13.9895 12.8254 14.4823 12.6134 14.8443 12.2389C15.2061 11.8646 15.4079 11.3588 15.4079 10.8331V2.99282C15.4079 2.46712 15.2061 1.96131 14.8443 1.58709C14.4823 1.21257 13.9895 1.00054 13.4737 1.00054H2.52632C2.01054 1.00054 1.51768 1.21257 1.15565 1.58709C0.7939 1.96131 0.592105 2.46712 0.592105 2.99282V15.7028ZM0.25 16.6811V2.99282C0.25 2.36332 0.491813 1.76123 0.919688 1.31861C1.34728 0.876265 1.92539 0.629395 2.52632 0.629395H13.4737C14.0746 0.629395 14.6527 0.876265 15.0803 1.31861C15.5082 1.76123 15.75 2.36332 15.75 2.99282V10.8331C15.75 11.4626 15.5082 12.0647 15.0803 12.5073C14.6527 12.9497 14.0746 13.1965 13.4737 13.1965H4.21053H4.10448L4.03078 13.2728L0.736061 16.6811H0.25ZM3.61842 4.11397H12.3816V4.48511H3.61842V4.11397ZM3.61842 6.7274H12.3816V7.09854H3.61842V6.7274ZM3.61842 9.34083H9.85526V9.71197H3.61842V9.34083Z" fill="white" stroke="white" stroke-width="0.5"/>
</svg>
