<svg width="32" height="36" viewBox="0 0 32 36" fill="none" xmlns="http://www.w3.org/2000/svg">
<path d="M16 14.4C19.0222 14.4 21.44 11.97 21.44 9C21.44 6.03 19.0222 3.6 16 3.6C12.9778 3.6 10.56 6.03 10.56 9C10.56 11.97 12.9778 14.4 16 14.4ZM16 18C11.0222 18 7.00444 13.968 7.00444 9C7.00444 4.032 11.0222 0 16 0C20.9778 0 24.9956 4.032 24.9956 9C24.9956 13.968 20.9778 18 16 18ZM3.55556 32.4H28.4444V30.006C28.4444 26.856 24.3378 23.598 16 23.598C7.66222 23.598 3.55556 26.856 3.55556 30.006V32.4ZM16 19.998C27.84 19.998 32 25.992 32 30.006V36H0V30.006C0 25.992 4.16 19.998 16 19.998Z" fill="#333030"/>
</svg>
