<svg width="16" height="16" viewBox="0 0 16 16" fill="none" xmlns="http://www.w3.org/2000/svg">
<path fill-rule="evenodd" clip-rule="evenodd" d="M7.57707 16H8.42293L10.4721 13.9509H13.3313L13.927 13.3552V10.4721L16 8.42293V7.57707L13.9628 5.52792V2.621L13.3671 2.03723H10.4721L8.42293 0H7.57707L5.58749 2.03723H2.64482L2.0134 2.63291V5.52792L0 7.57707V8.42293L2.0134 10.4721V13.3552L2.64482 13.9509H5.58749L7.57707 16ZM5.77811 12.7595H3.20477V10.2219L3.0618 9.80491L1.26284 7.99404L3.02606 6.19509L3.20477 5.77811V3.22859H5.77811L6.207 3.0618L7.97022 1.26284L9.80491 3.0618L10.2219 3.22859H12.7357V5.77811L12.9382 6.19509L14.7491 7.99404L12.9025 9.80491L12.7357 10.2219V12.7595H10.2219L9.76917 12.9382L7.97022 14.7372L6.207 12.9263L5.77811 12.7595ZM6.45719 10.9486H7.30305L11.7945 6.45719L10.9486 5.61132L6.88608 9.68578L5.242 8.0417L4.39613 8.88757L6.45719 10.9486Z" fill="white"/>
</svg>
