<svg width="19" height="17" viewBox="0 0 19 17" fill="none" xmlns="http://www.w3.org/2000/svg">
<path d="M17.5968 6.92511H16.6876C16.5465 5.17437 15.6822 3.53703 14.2682 2.34197C12.8542 1.14691 10.9954 0.482666 9.065 0.482666C7.13464 0.482666 5.27577 1.14691 3.8618 2.34197C2.44783 3.53703 1.58349 5.17437 1.4424 6.92511H0.533235C0.391812 6.92511 0.256182 6.9762 0.156181 7.06714C0.0561799 7.15808 0 7.28142 0 7.41003C0.00317108 8.93466 0.469648 10.4288 1.34791 11.7275C2.22618 13.0263 3.48206 14.079 4.97686 14.7694V15.1686C4.97686 15.4687 5.10795 15.7565 5.34128 15.9687C5.57462 16.1809 5.89109 16.3001 6.22108 16.3001H11.9089C12.2389 16.3001 12.5554 16.1809 12.7887 15.9687C13.022 15.7565 13.1531 15.4687 13.1531 15.1686V14.7694C14.6479 14.079 15.9038 13.0263 16.7821 11.7275C17.6604 10.4288 18.1268 8.93466 18.13 7.41003C18.13 7.28142 18.0738 7.15808 17.9738 7.06714C17.8738 6.9762 17.7382 6.92511 17.5968 6.92511ZM13.1745 2.74596C13.4325 2.93389 13.6746 3.13921 13.8988 3.36019C12.909 3.64036 11.9923 4.10094 11.2046 4.71385C10.4169 5.32675 9.77483 6.07913 9.3174 6.92511H6.34017C6.76014 5.70877 7.59524 4.64569 8.72437 3.89004C9.85351 3.13439 11.218 2.72545 12.6199 2.72253C12.8048 2.72253 12.9905 2.73142 13.1745 2.74596ZM14.6018 4.18858C15.1831 5.01078 15.5324 5.95075 15.6185 6.92511H10.5296C10.9755 6.2466 11.565 5.65533 12.264 5.18558C12.963 4.71583 13.7576 4.37695 14.6018 4.18858ZM9.065 1.42942C9.87966 1.42821 10.6874 1.56526 11.4468 1.83352C9.97998 2.04408 8.61191 2.63724 7.50857 3.54104C6.40523 4.44483 5.61405 5.62041 5.23104 6.92511H2.51154C2.64725 5.42869 3.39624 4.03326 4.61004 3.01537C5.82385 1.99748 7.41388 1.43143 9.065 1.42942ZM12.3977 14.0243C12.3048 14.063 12.2261 14.1251 12.171 14.2034C12.1158 14.2816 12.0866 14.3726 12.0867 14.4655V15.1686C12.0867 15.2115 12.0679 15.2526 12.0346 15.2829C12.0013 15.3133 11.9561 15.3303 11.9089 15.3303H6.22108C6.17394 15.3303 6.12873 15.3133 6.09539 15.2829C6.06206 15.2526 6.04333 15.2115 6.04333 15.1686V14.4655C6.04343 14.3726 6.01416 14.2816 5.95902 14.2034C5.90387 14.1251 5.82517 14.063 5.73228 14.0243C4.42418 13.4757 3.30246 12.6172 2.48468 11.5388C1.6669 10.4604 1.18319 9.2018 1.08425 7.89494H17.0458C16.9468 9.2018 16.4631 10.4604 15.6453 11.5388C14.8275 12.6172 13.7058 13.4757 12.3977 14.0243Z" fill="#F42021"/>
</svg>
