<svg width="20" height="23" viewBox="0 0 20 23" fill="none" xmlns="http://www.w3.org/2000/svg">
<path fill-rule="evenodd" clip-rule="evenodd" d="M6.87617 0.771838C6.87617 0.567134 6.95848 0.370814 7.10499 0.226066C7.2515 0.0813184 7.45021 0 7.65741 0L12.3449 0C12.5521 0 12.7508 0.0813184 12.8973 0.226066C13.0438 0.370814 13.1262 0.567134 13.1262 0.771838C13.1262 0.976542 13.0438 1.17286 12.8973 1.31761C12.7508 1.46236 12.5521 1.54368 12.3449 1.54368H10.7824V3.27259C12.4494 3.39872 14.0573 3.93815 15.4574 4.84097C15.4885 4.79817 15.5229 4.75791 15.5605 4.72056L17.123 3.17689C17.2137 3.08728 17.3214 3.01621 17.4399 2.96772C17.5584 2.91922 17.6854 2.89427 17.8136 2.89427C17.9419 2.89427 18.0689 2.91922 18.1874 2.96772C18.3059 3.01621 18.4136 3.08728 18.5043 3.17689C18.595 3.26649 18.6669 3.37286 18.716 3.48993C18.7651 3.607 18.7903 3.73247 18.7903 3.85919C18.7903 3.98591 18.7651 4.11138 18.716 4.22845C18.6669 4.34552 18.595 4.45189 18.5043 4.5415L16.9808 6.04658C18.6173 7.62282 19.6578 9.70531 19.9292 11.9473C20.2006 14.1893 19.6865 16.4554 18.4724 18.3685C17.2584 20.2815 15.4177 21.726 13.2568 22.4614C11.0959 23.1967 8.74528 23.1786 6.59626 22.4101C4.44724 21.6415 2.62954 20.1689 1.44581 18.2374C0.262078 16.3059 -0.216244 14.0321 0.0904847 11.7946C0.397213 9.55704 1.47048 7.49083 3.13159 5.93997C4.79269 4.38911 6.94139 3.44719 9.21991 3.27105V1.54368H7.65741C7.45021 1.54368 7.2515 1.46236 7.10499 1.31761C6.95848 1.17286 6.87617 0.976542 6.87617 0.771838ZM1.56367 13.1212C1.56367 10.9104 2.45262 8.79019 4.03496 7.22691C5.61729 5.66364 7.7634 4.7854 10.0012 4.7854C12.2389 4.7854 14.385 5.66364 15.9674 7.22691C17.5497 8.79019 18.4386 10.9104 18.4386 13.1212C18.4386 15.3321 17.5497 17.4523 15.9674 19.0156C14.385 20.5789 12.2389 21.4571 10.0012 21.4571C7.7634 21.4571 5.61729 20.5789 4.03496 19.0156C2.45262 17.4523 1.56367 15.3321 1.56367 13.1212ZM10.0012 13.1212V6.32907C8.8705 6.32894 7.75726 6.6043 6.76006 7.13077C5.76285 7.65725 4.91247 8.41858 4.28424 9.34732C3.65601 10.2761 3.26934 11.3435 3.15846 12.4552C3.04759 13.5669 3.21594 14.6884 3.64861 15.7204C4.08127 16.7524 4.7649 17.6631 5.63891 18.3717C6.51293 19.0803 7.55036 19.5651 8.65931 19.783C9.76825 20.0008 10.9145 19.9452 11.9964 19.6208C13.0784 19.2965 14.0627 18.7136 14.8621 17.9236L10.0012 13.1212Z" fill="#E7E6E6"/>
</svg>
