<svg width="17" height="17" viewBox="0 0 17 17" fill="none" xmlns="http://www.w3.org/2000/svg">
<path d="M8.75263 8.77606L1.61 16.5854C1.57682 16.6217 1.53743 16.6504 1.49407 16.6701C1.45072 16.6897 1.40426 16.6998 1.35733 16.6998C1.3104 16.6998 1.26394 16.6897 1.22059 16.6701C1.17723 16.6504 1.13784 16.6217 1.10466 16.5854C1.07148 16.5491 1.04516 16.506 1.0272 16.4586C1.00924 16.4112 1 16.3604 1 16.3091C1 16.2578 1.00924 16.207 1.0272 16.1596C1.04516 16.1122 1.07148 16.0691 1.10466 16.0329L7.99462 8.4998L1.10466 0.966742C1.03765 0.893475 1 0.794103 1 0.690488C1 0.586872 1.03765 0.4875 1.10466 0.414233C1.17167 0.340966 1.26256 0.299805 1.35733 0.299805C1.4521 0.299805 1.54299 0.340966 1.61 0.414233L8.75263 8.22355C8.78583 8.25981 8.81218 8.30288 8.83015 8.35028C8.84812 8.39768 8.85737 8.44849 8.85737 8.4998C8.85737 8.55112 8.84812 8.60193 8.83015 8.64933C8.81218 8.69673 8.78583 8.7398 8.75263 8.77606ZM15.8953 8.22355L8.75263 0.414233C8.68562 0.340966 8.59473 0.299805 8.49996 0.299805C8.40519 0.299805 8.3143 0.340966 8.24729 0.414233C8.18028 0.487501 8.14263 0.586872 8.14263 0.690488C8.14263 0.794103 8.18028 0.893475 8.24729 0.966742L15.1372 8.4998L8.24729 16.0329C8.21411 16.0691 8.18779 16.1122 8.16983 16.1596C8.15187 16.207 8.14263 16.2578 8.14263 16.3091C8.14263 16.3604 8.15187 16.4112 8.16983 16.4586C8.18779 16.506 8.21411 16.5491 8.24729 16.5854C8.28047 16.6217 8.31986 16.6504 8.36321 16.6701C8.40657 16.6897 8.45303 16.6998 8.49996 16.6998C8.54688 16.6998 8.59335 16.6897 8.6367 16.6701C8.68006 16.6504 8.71945 16.6217 8.75263 16.5854L15.8953 8.77606C15.9285 8.7398 15.9548 8.69673 15.9728 8.64933C15.9907 8.60193 16 8.55112 16 8.4998C16 8.44849 15.9907 8.39768 15.9728 8.35028C15.9548 8.30288 15.9285 8.25981 15.8953 8.22355Z" fill="#F42021" stroke="#F42021" stroke-width="0.5"/>
</svg>
