<svg width="19" height="21" viewBox="0 0 19 21" fill="none" xmlns="http://www.w3.org/2000/svg">
<path d="M17.8514 15.2545C17.3182 14.3042 16.5253 11.6557 16.5253 8.22227C16.5253 6.30681 15.7853 4.46979 14.4681 3.11535C13.151 1.76092 11.3645 1 9.5018 1C7.63906 1 5.85261 1.76092 4.53545 3.11535C3.2183 4.46979 2.47832 6.30681 2.47832 8.22227C2.47832 11.6557 1.68449 14.3042 1.15126 15.2497C1.0529 15.423 1.00073 15.6199 1.00001 15.8205C0.999289 16.0211 1.05005 16.2183 1.14717 16.3923C1.24428 16.5663 1.38431 16.7109 1.55313 16.8114C1.72195 16.912 1.91358 16.965 2.10867 16.965H6.19615C6.28839 17.8001 6.67636 18.5711 7.28604 19.1308C7.89573 19.6906 8.68446 20 9.5018 20C10.3191 20 11.1079 19.6906 11.7176 19.1308C12.3272 18.5711 12.7152 17.8001 12.8075 16.965H16.8949C17.0893 16.9643 17.28 16.9111 17.448 16.8107C17.6161 16.7104 17.7555 16.5663 17.8524 16.3931C17.9493 16.2199 18.0002 16.0235 18 15.8237C17.9998 15.6238 17.9486 15.4275 17.8514 15.2545ZM9.5018 19.2457C8.87962 19.2457 8.27829 19.0151 7.80798 18.5962C7.33768 18.1773 7.02989 17.5983 6.941 16.965H12.0626C11.9737 17.5983 11.6659 18.1773 11.1956 18.5962C10.7253 19.0151 10.124 19.2457 9.5018 19.2457ZM17.2138 16.0147C17.1822 16.0728 17.136 16.121 17.0801 16.1544C17.0242 16.1879 16.9605 16.2053 16.8959 16.2048H2.10867C2.04399 16.2053 1.98036 16.1879 1.92444 16.1544C1.86853 16.121 1.82236 16.0728 1.79076 16.0147C1.75832 15.9569 1.74124 15.8914 1.74124 15.8247C1.74124 15.7579 1.75832 15.6924 1.79076 15.6346C2.47832 14.4154 3.21764 11.5787 3.21764 8.22227C3.21764 6.50843 3.87972 4.86479 5.05823 3.65292C6.23674 2.44106 7.83514 1.76024 9.5018 1.76024C11.1685 1.76024 12.7669 2.44106 13.9454 3.65292C15.1239 4.86479 15.786 6.50843 15.786 8.22227C15.786 11.5778 16.5253 14.4154 17.2128 15.6346C17.2454 15.6923 17.2627 15.7578 17.2628 15.8245C17.263 15.8913 17.2461 15.9569 17.2138 16.0147Z" fill="#F42021" stroke="#F42021" stroke-width="0.5"/>
</svg>
