<svg width="18" height="21" viewBox="0 0 18 21" fill="none" xmlns="http://www.w3.org/2000/svg">
<path d="M4.53857 2.63606C5.11128 1.61772 6.00189 0.824771 7.06806 0.383965C8.13422 -0.0568409 9.31437 -0.120054 10.4199 0.20443C11.5254 0.528913 12.4924 1.22236 13.1664 2.17392C13.8403 3.12549 14.1823 4.28023 14.1377 5.45357C14.093 6.6269 13.6643 7.75109 12.9201 8.64643C12.1759 9.54178 11.1591 10.1566 10.0323 10.3926C8.90546 10.6286 7.73366 10.4721 6.7042 9.94822C5.67473 9.42434 4.84704 8.56327 4.35343 7.50266C4.02364 7.74893 3.62547 7.88135 3.21686 7.88065H2.574V8.21533C2.574 8.46469 2.66657 8.69175 2.81829 8.86368C2.94793 8.71407 3.11915 8.60833 3.30914 8.56054C3.49912 8.51274 3.69887 8.52516 3.88177 8.59613C4.06467 8.66711 4.22205 8.79328 4.33296 8.95784C4.44386 9.1224 4.50302 9.31754 4.50257 9.51729C4.50248 9.65446 4.47429 9.7901 4.41983 9.91551C4.36537 10.0409 4.28584 10.1533 4.18633 10.2455C4.08682 10.3377 3.96953 10.4076 3.84199 10.4508C3.71445 10.494 3.57947 10.5096 3.44571 10.4964C2.86665 10.4756 2.31809 10.2262 1.91563 9.80071C1.51318 9.37519 1.28826 8.8068 1.28829 8.21533V3.29098C1.28829 3.11693 1.35602 2.95002 1.47657 2.82695C1.59713 2.70388 1.76065 2.63475 1.93114 2.63475H4.50257L4.53857 2.63606ZM5.14543 5.40666C5.18548 6.43658 5.61957 7.4094 6.35448 8.11623C7.08939 8.82306 8.06652 9.20753 9.07605 9.18708C10.0856 9.16664 11.047 8.7429 11.7539 8.00687C12.4607 7.27084 12.8567 6.28121 12.8567 5.25048C12.8567 4.21975 12.4607 3.23011 11.7539 2.49408C11.047 1.75805 10.0856 1.33432 9.07605 1.31387C8.06652 1.29343 7.08939 1.6779 6.35448 2.38473C5.61957 3.09155 5.18548 4.06438 5.14543 5.0943V5.40666ZM3.85971 5.06936V3.94721H2.574V6.56819H3.21686C3.38735 6.56819 3.55087 6.49905 3.67143 6.37598C3.79199 6.25292 3.85971 6.086 3.85971 5.91196V5.4316C3.85571 5.31089 3.85571 5.19007 3.85971 5.06936ZM0 14.4377C0 12.9769 1.161 11.8128 2.583 11.8128H15.4286C16.1106 11.8128 16.7646 12.0893 17.2468 12.5816C17.7291 13.0739 18 13.7415 18 14.4377C18 16.6571 16.929 18.3305 15.255 19.4211C13.6067 20.4934 11.385 21 9 21C6.615 21 4.39329 20.4934 2.745 19.4211C1.071 18.3318 0 16.6558 0 14.4377ZM2.583 13.1252C1.86171 13.1252 1.28571 13.7119 1.28571 14.4377C1.28571 16.1557 2.08543 17.4354 3.43671 18.3134C4.81243 19.2098 6.76929 19.6875 9 19.6875C11.2307 19.6875 13.1876 19.2098 14.5633 18.3134C15.9133 17.434 16.7143 16.157 16.7143 14.4377C16.7143 14.0896 16.5788 13.7558 16.3377 13.5097C16.0966 13.2635 15.7696 13.1252 15.4286 13.1252H2.583Z" fill="#F42021"/>
</svg>
