<svg width="15" height="15" viewBox="0 0 15 15" fill="none" xmlns="http://www.w3.org/2000/svg">
<path d="M5.97015 13.5C5.97015 14.325 5.29851 15 4.47761 15C3.65672 15 2.98507 14.325 2.98507 13.5C2.98507 12.675 3.65672 12 4.47761 12C5.29851 12 5.97015 12.675 5.97015 13.5ZM11.9403 12C11.1194 12 10.4478 12.675 10.4478 13.5C10.4478 14.325 11.1194 15 11.9403 15C12.7612 15 13.4328 14.325 13.4328 13.5C13.4328 12.675 12.7612 12 11.9403 12ZM4.62687 9.6V9.525L5.29851 8.25H10.8209C11.3433 8.25 11.8657 7.95 12.0896 7.5L15 2.25L13.7313 1.5L10.8209 6.75H5.59701L2.46269 0H0V1.5H1.49254L4.1791 7.2L3.13433 9C3.0597 9.225 2.98507 9.45 2.98507 9.75C2.98507 10.575 3.65672 11.25 4.47761 11.25H13.4328V9.75H4.77612C4.70149 9.75 4.62687 9.675 4.62687 9.6ZM8.20895 5.475L7.76119 5.1C6.26866 3.675 5.22388 2.775 5.22388 1.65C5.22388 0.75 5.97015 0 6.86567 0C7.38806 0 7.91045 0.225 8.20895 0.6C8.50746 0.225 9.02985 0 9.55224 0C10.4478 0 11.194 0.675 11.194 1.65C11.194 2.775 10.1493 3.675 8.65672 5.1L8.20895 5.475Z" fill="#6E726E"/>
</svg>
